<?xml version="1.0" encoding="UTF-8"?>
<svg width="182px" height="40px" viewBox="0 0 182 40" version="1.1" xmlns="http://www.w3.org/2000/svg" xmlns:xlink="http://www.w3.org/1999/xlink">
    <title>logo-planetel</title>
    <g id="Symbols" stroke="none" stroke-width="1" fill="none" fill-rule="evenodd">
        <g id="Group-6" transform="translate(-30, -22)">
            <g id="logo-planetel" transform="translate(30, 22)">
                <path d="M173.381492,39.6685827 L181.214723,39.6685827 L181.214723,0.000778567509 L173.381492,0.000778567509 L173.381492,39.6685827 Z M165.547209,23.1484323 L153.204389,23.1484323 C153.204389,17.6626877 155.137341,14.8577405 159.002192,14.7329592 C163.365537,14.7329592 165.547209,17.5387482 165.547209,23.1484323 L165.547209,23.1484323 Z M170.659452,26.9091238 C170.686386,26.7153236 170.720896,26.3733852 170.76277,25.8816251 C170.803803,25.3898651 170.825266,24.7897368 170.825266,24.0837654 C170.825266,20.3295971 170.056799,17.3514712 168.518812,15.1483355 C166.718217,12.4890014 163.289153,11.1587031 158.232673,11.1587031 C154.021254,11.2005774 150.825129,12.4403936 148.643457,14.8781516 C146.461784,17.3169617 145.370948,21.154037 145.370948,26.3902191 C145.411981,30.9612521 146.391924,34.2832102 148.310987,36.3539894 C150.22984,38.4247685 153.252787,39.6123996 157.381299,39.9170931 C157.948601,39.9730658 158.738531,40 159.750248,40 C162.298058,40 164.397665,39.76159 166.045493,39.2837179 C167.694372,38.8058458 168.518812,38.4209809 168.518812,38.1303859 L169.724119,33.2054203 C169.224994,33.7047556 168.151833,34.3250846 166.502954,35.0655654 C164.854074,35.8070983 162.576448,36.1770231 159.667341,36.1770231 C157.283452,36.0669715 155.642147,34.868188 154.742165,32.5821454 C153.841552,30.297155 153.32917,28.4060777 153.204389,26.9091238 L170.659452,26.9091238 Z M144.269801,14.8996148 L144.269801,11.3253586 L138.887585,11.3253586 L138.887585,0.000778567509 L130.887488,0.000778567509 L130.887488,11.3253586 L125.526314,11.3253586 L125.526314,14.8996148 L130.887488,14.8996148 L130.887488,30.9827153 C130.887488,34.224502 131.885107,36.5235909 133.879502,37.8816651 C135.569414,39.1280044 138.235482,39.7512792 141.879599,39.7512792 C142.433855,39.7512792 142.932138,39.7373913 143.375711,39.7094049 C143.804975,39.695517 144.103145,39.6814186 144.269801,39.6683723 L144.269801,35.6581184 C142.343583,35.6581184 141.034748,35.3805696 140.341612,34.8271554 C139.37177,34.1340199 138.887585,32.9705875 138.887585,31.3358062 L138.887585,14.8996148 L144.269801,14.8996148 Z M120.342317,23.1484323 L107.999497,23.1484323 C107.999497,17.6626877 109.931607,14.8577405 113.79751,14.7329592 C118.160645,14.7329592 120.342317,17.5387482 120.342317,23.1484323 L120.342317,23.1484323 Z M125.45477,26.9091238 C125.481704,26.7153236 125.517056,26.3733852 125.558088,25.8816251 C125.599963,25.3898651 125.620584,24.7897368 125.620584,24.0837654 C125.620584,20.3295971 124.851906,17.3514712 123.31392,15.1483355 C121.513325,12.4890014 118.084261,11.1587031 113.027991,11.1587031 C108.816572,11.2005774 105.620447,12.4403936 103.438775,14.8781516 C101.257102,17.3169617 100.166266,21.154037 100.166266,26.3902191 C100.207088,30.9612521 101.187242,34.2832102 103.106095,36.3539894 C105.025159,38.4247685 108.047895,39.6123996 112.176617,39.9170931 C112.743919,39.9730658 113.53385,40 114.545356,40 C117.094218,40 119.192983,39.76159 120.840811,39.2837179 C122.489691,38.8058458 123.31392,38.4209809 123.31392,38.1303859 L124.519437,33.2054203 C124.020943,33.7047556 122.946941,34.3250846 121.299114,35.0655654 C119.649392,35.8070983 117.370714,36.1770231 114.461607,36.1770231 C112.07877,36.0669715 110.437255,34.868188 109.537484,32.5821454 C108.63666,30.297155 108.124278,28.4060777 107.999497,26.9091238 L125.45477,26.9091238 Z M95.2728642,13.184662 C93.8802805,11.8339526 91.7087084,11.1587031 88.7585688,11.1587031 C87.192596,11.1587031 85.8176879,11.339457 84.6327923,11.6988606 C83.4487384,12.0593163 82.5348685,12.4544919 81.8903409,12.8837562 C81.2466549,13.3132309 80.8685236,13.5619516 80.7576304,13.6318123 L80.7576304,11.3253586 L72.7583753,11.3253586 L72.7583753,39.6683723 L80.7576304,39.6683723 L80.7576304,19.1587999 C80.9103979,18.6053857 81.3705945,17.8815283 82.1399033,16.9872278 C82.9085809,16.0939794 84.1791189,15.5435111 85.9527799,15.3356126 C89.5819566,15.3356126 91.3966502,16.5270313 91.3966502,18.9098687 L91.3966502,39.6683723 L97.3604773,39.6683723 L97.3604773,17.8703759 C97.3604773,16.0975566 96.6646063,14.5353714 95.2728642,13.184662 L95.2728642,13.184662 Z M54.8050293,35.6581184 C51.9087582,35.6581184 50.3718239,34.6947989 50.1919116,32.7694225 C50.1919116,31.1066548 50.7733122,29.9329117 51.9367445,29.2473514 C53.101229,28.5615807 54.790931,28.066033 57.0071128,27.7613396 C58.3094248,27.6096241 59.279057,27.3600617 59.9162198,27.0134939 C60.5533826,26.6677679 60.9613941,26.3176229 61.142148,25.964532 C61.3220602,25.6105995 61.4188551,25.4140638 61.4327431,25.371979 L61.4327431,31.8340894 C61.4327431,33.4000622 60.1304311,34.5357186 57.5268593,35.2425317 C56.5841613,35.5192388 55.6778666,35.6581184 54.8050293,35.6581184 L54.8050293,35.6581184 Z M69.433892,39.6683723 L69.433892,19.3254554 C69.433892,16.9146317 68.4566846,14.9648461 66.5031114,13.4754675 C64.5505903,11.9867202 61.3843456,11.24161 57.0071128,11.24161 C54.8599499,11.255498 53.0107469,11.4808617 51.4588724,11.9168595 C49.9078397,12.3539094 48.6987454,12.8214708 47.8332729,13.319754 C46.9669588,13.8182476 46.5336965,14.1162075 46.5336965,14.2132128 L45.349853,19.8452018 C45.9179969,19.0272851 47.1123615,18.0128327 48.9344199,16.8010029 C50.7554262,15.588121 53.3089172,14.9825217 56.5915261,14.9825217 C58.1846436,14.9825217 59.4486585,15.349711 60.3839916,16.0836687 C61.3191143,16.8186785 61.785834,17.6980389 61.785834,18.7228021 C61.785834,19.7334669 61.27724,20.6443909 60.259,21.4549428 C59.2409703,22.2654947 57.789468,22.746944 55.9059659,22.8988699 C51.8193281,23.204405 48.7545077,24.0696671 46.7108732,25.4969707 C44.6678699,26.9230118 43.6460527,29.0636516 43.6460527,31.9169963 C43.687927,34.5775929 44.5672874,36.5235909 46.2849757,37.7558318 C48.0028744,38.9901769 50.1565605,39.6544844 52.747086,39.7512792 C55.7811847,39.7512792 57.9321352,39.3704124 59.1988856,38.608258 C60.4668985,37.8471556 61.2120087,37.2091511 61.4327431,36.6967695 L61.4327431,39.6683723 L69.433892,39.6683723 Z M33.9543602,39.6685827 L41.787591,39.6685827 L41.787591,0.000778567509 L33.9543602,0.000778567509 L33.9543602,39.6685827 Z" id="Fill-1" fill="#26608C"></path>
                <path d="M21.51666,16.9149052 C20.484532,17.9535563 18.957698,18.4733028 16.9353163,18.4733028 L9.01812642,18.4733028 L9.01812642,4.94642877 L17.1840371,4.94642877 C18.9158237,4.94642877 20.3187182,5.49331984 21.3918788,6.58689155 C22.4658811,7.68256751 23.0228725,9.23338981 23.0649573,11.2418836 C23.0649573,13.9851767 22.548788,15.8762541 21.51666,16.9149052 M27.9684596,2.5151939 C25.6415949,0.838327826 22.393285,0 18.2237403,0 L0,0 L0,39.6686459 L9.01812642,39.6686459 L9.01812642,23.3359829 L17.1840371,23.3359829 C20.0234938,23.3359829 22.4797691,23.051911 24.5507587,22.4837671 C26.6215378,21.9162545 28.3112397,20.7557681 29.621127,19.0033599 C30.9297516,17.2511622 31.5848005,14.7473312 31.5848005,11.491446 C31.5018935,7.18323218 30.2963765,4.19100786 27.9684596,2.5151939" id="Fill-3" fill="#429D46"></path>
            </g>
        </g>
    </g>
</svg>